# xmcd CD database file
#
# Track frame offsets:
#	150
#	20023
#	37516
#	62297
#	79832
#	96610
#	116689
#	137129
#	159273
#	168907
#	194892
#	211424
#
# Disc length: 3136 seconds
#
# Revision: 0
# Processed by: cddbd v1.5.1PL0 Copyright (c) Steve Scherf et al.
# Submitted via: CDex 1.51
#
DISCID=9f0c3e0c
DTITLE=John Balint - Connected
DYEAR=2003
DGENRE=New Age
TTITLE0=Connected
TTITLE1=Dreamtrance in 11/8
TTITLE2=Friend Coming Home
TTITLE3=Leaving Together
TTITLE4=Finding the One
TTITLE5=Sanctuary of Moments
TTITLE6=Simultaneity
TTITLE7=In a New Age Country
TTITLE8=100 Years From Now
TTITLE9=Knowing What to Save
TTITLE10=Beneath the Blue III
TTITLE11=It's What You Make of It
EXTD=YEAR: 2003
EXTT0=
EXTT1=
EXTT2=
EXTT3=
EXTT4=
EXTT5=
EXTT6=
EXTT7=
EXTT8=
EXTT9=
EXTT10=
EXTT11=
PLAYORDER=
